<mxfile host="Electron" agent="Mozilla/5.0 (X11; Linux x86_64) AppleWebKit/537.36 (KHTML, like Gecko) draw.io/26.1.1 Chrome/132.0.6834.210 Electron/34.3.3 Safari/537.36" version="26.1.1">
  <diagram name="Page-1" id="TpvWTKtytnGzHCLbApel">
    <mxGraphModel dx="1646" dy="450" grid="1" gridSize="10" guides="1" tooltips="1" connect="1" arrows="1" fold="1" page="1" pageScale="1" pageWidth="827" pageHeight="1169" math="0" shadow="0">
      <root>
        <mxCell id="0" />
        <mxCell id="1" parent="0" />
        <mxCell id="aVfDais8ba7qGyW5DWxb-1" value="Node A" style="shape=umlLifeline;perimeter=lifelinePerimeter;whiteSpace=wrap;html=1;container=1;dropTarget=0;collapsible=0;recursiveResize=0;outlineConnect=0;portConstraint=eastwest;newEdgeStyle={&quot;curved&quot;:0,&quot;rounded&quot;:0};" vertex="1" parent="1">
          <mxGeometry x="150" y="160" width="100" height="810" as="geometry" />
        </mxCell>
        <mxCell id="aVfDais8ba7qGyW5DWxb-12" value="" style="html=1;points=[[0,0,0,0,5],[0,1,0,0,-5],[1,0,0,0,5],[1,1,0,0,-5]];perimeter=orthogonalPerimeter;outlineConnect=0;targetShapes=umlLifeline;portConstraint=eastwest;newEdgeStyle={&quot;curved&quot;:0,&quot;rounded&quot;:0};" vertex="1" parent="aVfDais8ba7qGyW5DWxb-1">
          <mxGeometry x="45" y="140" width="10" height="70" as="geometry" />
        </mxCell>
        <mxCell id="aVfDais8ba7qGyW5DWxb-2" value="Node B" style="shape=umlLifeline;perimeter=lifelinePerimeter;whiteSpace=wrap;html=1;container=1;dropTarget=0;collapsible=0;recursiveResize=0;outlineConnect=0;portConstraint=eastwest;newEdgeStyle={&quot;curved&quot;:0,&quot;rounded&quot;:0};" vertex="1" parent="1">
          <mxGeometry x="480" y="160" width="100" height="810" as="geometry" />
        </mxCell>
        <mxCell id="aVfDais8ba7qGyW5DWxb-5" value="" style="html=1;points=[[0,0,0,0,5],[0,1,0,0,-5],[1,0,0,0,5],[1,1,0,0,-5]];perimeter=orthogonalPerimeter;outlineConnect=0;targetShapes=umlLifeline;portConstraint=eastwest;newEdgeStyle={&quot;curved&quot;:0,&quot;rounded&quot;:0};" vertex="1" parent="aVfDais8ba7qGyW5DWxb-2">
          <mxGeometry x="45" y="60" width="10" height="240" as="geometry" />
        </mxCell>
        <mxCell id="aVfDais8ba7qGyW5DWxb-27" value="" style="html=1;points=[[0,0,0,0,5],[0,1,0,0,-5],[1,0,0,0,5],[1,1,0,0,-5]];perimeter=orthogonalPerimeter;outlineConnect=0;targetShapes=umlLifeline;portConstraint=eastwest;newEdgeStyle={&quot;curved&quot;:0,&quot;rounded&quot;:0};" vertex="1" parent="aVfDais8ba7qGyW5DWxb-2">
          <mxGeometry x="45" y="350" width="10" height="400" as="geometry" />
        </mxCell>
        <mxCell id="aVfDais8ba7qGyW5DWxb-4" value="PING" style="html=1;verticalAlign=bottom;startArrow=oval;startFill=1;endArrow=block;startSize=8;curved=0;rounded=0;entryX=0;entryY=0;entryDx=0;entryDy=5;entryPerimeter=0;" edge="1" parent="1" source="aVfDais8ba7qGyW5DWxb-1" target="aVfDais8ba7qGyW5DWxb-5">
          <mxGeometry width="60" relative="1" as="geometry">
            <mxPoint x="175" y="260" as="sourcePoint" />
            <mxPoint x="545" y="240" as="targetPoint" />
          </mxGeometry>
        </mxCell>
        <mxCell id="aVfDais8ba7qGyW5DWxb-7" value="alt" style="shape=umlFrame;whiteSpace=wrap;html=1;pointerEvents=0;" vertex="1" parent="1">
          <mxGeometry x="-70" y="270" width="690" height="710" as="geometry" />
        </mxCell>
        <mxCell id="aVfDais8ba7qGyW5DWxb-9" value="" style="endArrow=none;dashed=1;html=1;dashPattern=1 3;strokeWidth=2;rounded=0;exitX=0.008;exitY=0.5;exitDx=0;exitDy=0;exitPerimeter=0;entryX=0.995;entryY=0.503;entryDx=0;entryDy=0;entryPerimeter=0;" edge="1" parent="1">
          <mxGeometry width="50" height="50" relative="1" as="geometry">
            <mxPoint x="-65.51000000000002" y="420" as="sourcePoint" />
            <mxPoint x="615.5200000000002" y="421.11" as="targetPoint" />
          </mxGeometry>
        </mxCell>
        <mxCell id="aVfDais8ba7qGyW5DWxb-11" value="PING" style="html=1;verticalAlign=bottom;startArrow=oval;startFill=1;endArrow=block;startSize=8;curved=0;rounded=0;entryX=1;entryY=0;entryDx=0;entryDy=5;entryPerimeter=0;" edge="1" parent="1" source="aVfDais8ba7qGyW5DWxb-5" target="aVfDais8ba7qGyW5DWxb-12">
          <mxGeometry width="60" relative="1" as="geometry">
            <mxPoint x="370" y="310" as="sourcePoint" />
            <mxPoint x="370" y="320" as="targetPoint" />
          </mxGeometry>
        </mxCell>
        <mxCell id="aVfDais8ba7qGyW5DWxb-13" value="[Buff size A &amp;gt; Buff size B ||&lt;div&gt;Buff Size B == 0]&lt;/div&gt;" style="text;html=1;align=left;verticalAlign=middle;resizable=0;points=[];autosize=1;strokeColor=none;fillColor=none;" vertex="1" parent="1">
          <mxGeometry x="-60" y="300" width="160" height="40" as="geometry" />
        </mxCell>
        <mxCell id="aVfDais8ba7qGyW5DWxb-14" value="&lt;font style=&quot;font-size: 8px; color: rgb(0, 0, 0);&quot;&gt;Buff size A&lt;/font&gt;" style="text;html=1;align=center;verticalAlign=middle;resizable=0;points=[];autosize=1;strokeColor=none;fillColor=none;" vertex="1" parent="1">
          <mxGeometry x="200" y="220" width="60" height="30" as="geometry" />
        </mxCell>
        <mxCell id="aVfDais8ba7qGyW5DWxb-15" value="&lt;font style=&quot;font-size: 8px; color: rgb(0, 0, 0);&quot;&gt;Buff size B&lt;/font&gt;" style="text;html=1;align=center;verticalAlign=middle;resizable=0;points=[];autosize=1;strokeColor=none;fillColor=none;" vertex="1" parent="1">
          <mxGeometry x="460" y="300" width="60" height="30" as="geometry" />
        </mxCell>
        <mxCell id="aVfDais8ba7qGyW5DWxb-17" value="[Buff size A &amp;lt;= Buff size B&lt;span style=&quot;background-color: transparent; color: light-dark(rgb(0, 0, 0), rgb(255, 255, 255));&quot;&gt;]&lt;/span&gt;" style="text;html=1;align=left;verticalAlign=middle;resizable=0;points=[];autosize=1;strokeColor=none;fillColor=none;" vertex="1" parent="1">
          <mxGeometry x="-60" y="430" width="160" height="30" as="geometry" />
        </mxCell>
        <mxCell id="aVfDais8ba7qGyW5DWxb-18" value="" style="html=1;points=[[0,0,0,0,5],[0,1,0,0,-5],[1,0,0,0,5],[1,1,0,0,-5]];perimeter=orthogonalPerimeter;outlineConnect=0;targetShapes=umlLifeline;portConstraint=eastwest;newEdgeStyle={&quot;curved&quot;:0,&quot;rounded&quot;:0};" vertex="1" parent="1">
          <mxGeometry x="195" y="440" width="10" height="80" as="geometry" />
        </mxCell>
        <mxCell id="aVfDais8ba7qGyW5DWxb-19" value="DATA" style="html=1;verticalAlign=bottom;startArrow=oval;startFill=1;endArrow=block;startSize=8;curved=0;rounded=0;entryX=1;entryY=0;entryDx=0;entryDy=5;entryPerimeter=0;" edge="1" parent="1" source="aVfDais8ba7qGyW5DWxb-5" target="aVfDais8ba7qGyW5DWxb-18">
          <mxGeometry width="60" relative="1" as="geometry">
            <mxPoint x="230" y="460" as="sourcePoint" />
            <mxPoint x="290" y="460" as="targetPoint" />
          </mxGeometry>
        </mxCell>
        <mxCell id="aVfDais8ba7qGyW5DWxb-20" value="" style="html=1;verticalAlign=bottom;endArrow=open;dashed=1;endSize=8;curved=0;rounded=0;exitX=1;exitY=1;exitDx=0;exitDy=-5;exitPerimeter=0;strokeColor=#B3B3B3;" edge="1" parent="1" source="aVfDais8ba7qGyW5DWxb-12" target="aVfDais8ba7qGyW5DWxb-5">
          <mxGeometry relative="1" as="geometry">
            <mxPoint x="300" y="390" as="sourcePoint" />
            <mxPoint x="220" y="390" as="targetPoint" />
          </mxGeometry>
        </mxCell>
        <mxCell id="aVfDais8ba7qGyW5DWxb-42" value="&lt;font style=&quot;color: rgb(179, 179, 179);&quot;&gt;PING of DATA&lt;/font&gt;" style="edgeLabel;html=1;align=center;verticalAlign=middle;resizable=0;points=[];" vertex="1" connectable="0" parent="aVfDais8ba7qGyW5DWxb-20">
          <mxGeometry x="0.3277" y="1" relative="1" as="geometry">
            <mxPoint x="-18" y="-14" as="offset" />
          </mxGeometry>
        </mxCell>
        <mxCell id="aVfDais8ba7qGyW5DWxb-23" value="&lt;span style=&quot;font-size: 8px;&quot;&gt;Pinging repeats, until one node has data in buffer&lt;/span&gt;" style="shape=note2;boundedLbl=1;whiteSpace=wrap;html=1;size=17;verticalAlign=top;align=center;" vertex="1" parent="1">
          <mxGeometry x="240" y="340" width="110" height="60" as="geometry" />
        </mxCell>
        <mxCell id="aVfDais8ba7qGyW5DWxb-26" value="ACK" style="html=1;verticalAlign=bottom;startArrow=oval;startFill=1;endArrow=block;startSize=8;curved=0;rounded=0;exitX=1;exitY=1;exitDx=0;exitDy=-5;exitPerimeter=0;entryX=0;entryY=0;entryDx=0;entryDy=5;entryPerimeter=0;" edge="1" parent="1" source="aVfDais8ba7qGyW5DWxb-18" target="aVfDais8ba7qGyW5DWxb-27">
          <mxGeometry width="60" relative="1" as="geometry">
            <mxPoint x="330" y="480" as="sourcePoint" />
            <mxPoint x="390" y="480" as="targetPoint" />
          </mxGeometry>
        </mxCell>
        <mxCell id="aVfDais8ba7qGyW5DWxb-28" value="&lt;font style=&quot;font-size: 8px; color: rgb(0, 0, 0);&quot;&gt;Buff size A&lt;/font&gt;" style="text;html=1;align=center;verticalAlign=middle;resizable=0;points=[];autosize=1;strokeColor=none;fillColor=none;" vertex="1" parent="1">
          <mxGeometry x="200" y="510" width="60" height="30" as="geometry" />
        </mxCell>
        <mxCell id="aVfDais8ba7qGyW5DWxb-29" value="alt" style="shape=umlFrame;whiteSpace=wrap;html=1;pointerEvents=0;" vertex="1" parent="1">
          <mxGeometry x="-60" y="540" width="670" height="400" as="geometry" />
        </mxCell>
        <mxCell id="aVfDais8ba7qGyW5DWxb-30" value="" style="endArrow=none;dashed=1;html=1;dashPattern=1 3;strokeWidth=2;rounded=0;exitX=0.008;exitY=0.5;exitDx=0;exitDy=0;exitPerimeter=0;" edge="1" parent="1">
          <mxGeometry width="50" height="50" relative="1" as="geometry">
            <mxPoint x="-60.00000000000002" y="650" as="sourcePoint" />
            <mxPoint x="610" y="650" as="targetPoint" />
          </mxGeometry>
        </mxCell>
        <mxCell id="aVfDais8ba7qGyW5DWxb-31" value="ACK == False" style="text;html=1;align=left;verticalAlign=middle;resizable=0;points=[];autosize=1;strokeColor=none;fillColor=none;" vertex="1" parent="1">
          <mxGeometry x="-50" y="570" width="100" height="30" as="geometry" />
        </mxCell>
        <mxCell id="aVfDais8ba7qGyW5DWxb-32" value="DATA" style="html=1;verticalAlign=bottom;startArrow=oval;startFill=1;endArrow=block;startSize=8;curved=0;rounded=0;entryX=1;entryY=0;entryDx=0;entryDy=5;entryPerimeter=0;strokeColor=#000000;" edge="1" parent="1" source="aVfDais8ba7qGyW5DWxb-27" target="aVfDais8ba7qGyW5DWxb-33">
          <mxGeometry width="60" relative="1" as="geometry">
            <mxPoint x="520" y="560" as="sourcePoint" />
            <mxPoint x="200" y="560" as="targetPoint" />
          </mxGeometry>
        </mxCell>
        <mxCell id="aVfDais8ba7qGyW5DWxb-33" value="" style="html=1;points=[[0,0,0,0,5],[0,1,0,0,-5],[1,0,0,0,5],[1,1,0,0,-5]];perimeter=orthogonalPerimeter;outlineConnect=0;targetShapes=umlLifeline;portConstraint=eastwest;newEdgeStyle={&quot;curved&quot;:0,&quot;rounded&quot;:0};strokeColor=#000000;" vertex="1" parent="1">
          <mxGeometry x="200" y="560" width="10" height="55" as="geometry" />
        </mxCell>
        <mxCell id="aVfDais8ba7qGyW5DWxb-35" value="[Buff size A &amp;gt; Buff size B ||&lt;div&gt;Buff Size B == 0]&lt;/div&gt;" style="text;html=1;align=left;verticalAlign=middle;resizable=0;points=[];autosize=1;strokeColor=none;fillColor=none;" vertex="1" parent="1">
          <mxGeometry x="-50" y="650" width="160" height="40" as="geometry" />
        </mxCell>
        <mxCell id="aVfDais8ba7qGyW5DWxb-36" value="" style="endArrow=none;dashed=1;html=1;dashPattern=1 3;strokeWidth=2;rounded=0;exitX=0.008;exitY=0.5;exitDx=0;exitDy=0;exitPerimeter=0;" edge="1" parent="1">
          <mxGeometry width="50" height="50" relative="1" as="geometry">
            <mxPoint x="-60.00000000000002" y="780" as="sourcePoint" />
            <mxPoint x="610" y="780" as="targetPoint" />
          </mxGeometry>
        </mxCell>
        <mxCell id="aVfDais8ba7qGyW5DWxb-37" value="" style="html=1;points=[[0,0,0,0,5],[0,1,0,0,-5],[1,0,0,0,5],[1,1,0,0,-5]];perimeter=orthogonalPerimeter;outlineConnect=0;targetShapes=umlLifeline;portConstraint=eastwest;newEdgeStyle={&quot;curved&quot;:0,&quot;rounded&quot;:0};" vertex="1" parent="1">
          <mxGeometry x="195" y="675" width="10" height="70" as="geometry" />
        </mxCell>
        <mxCell id="aVfDais8ba7qGyW5DWxb-38" value="PING" style="html=1;verticalAlign=bottom;startArrow=oval;startFill=1;endArrow=block;startSize=8;curved=0;rounded=0;entryX=1;entryY=0;entryDx=0;entryDy=5;entryPerimeter=0;" edge="1" parent="1" target="aVfDais8ba7qGyW5DWxb-37" source="aVfDais8ba7qGyW5DWxb-27">
          <mxGeometry width="60" relative="1" as="geometry">
            <mxPoint x="570" y="715" as="sourcePoint" />
            <mxPoint x="415" y="730" as="targetPoint" />
          </mxGeometry>
        </mxCell>
        <mxCell id="aVfDais8ba7qGyW5DWxb-39" value="" style="html=1;verticalAlign=bottom;endArrow=open;dashed=1;endSize=8;curved=0;rounded=0;exitX=1;exitY=1;exitDx=0;exitDy=-5;exitPerimeter=0;strokeColor=#B3B3B3;" edge="1" parent="1" source="aVfDais8ba7qGyW5DWxb-37" target="aVfDais8ba7qGyW5DWxb-27">
          <mxGeometry relative="1" as="geometry">
            <mxPoint x="345" y="800" as="sourcePoint" />
            <mxPoint x="570" y="775" as="targetPoint" />
          </mxGeometry>
        </mxCell>
        <mxCell id="aVfDais8ba7qGyW5DWxb-40" value="&lt;span style=&quot;font-size: 8px;&quot;&gt;Pinging repeats, until one node has data in buffer&lt;/span&gt;" style="shape=note2;boundedLbl=1;whiteSpace=wrap;html=1;size=17;verticalAlign=top;align=center;" vertex="1" parent="1">
          <mxGeometry x="240" y="695" width="110" height="60" as="geometry" />
        </mxCell>
        <mxCell id="aVfDais8ba7qGyW5DWxb-43" value="&lt;font style=&quot;color: rgb(179, 179, 179);&quot;&gt;PING of DATA&lt;/font&gt;" style="edgeLabel;html=1;align=center;verticalAlign=middle;resizable=0;points=[];" vertex="1" connectable="0" parent="1">
          <mxGeometry x="414.0014285714287" y="710" as="geometry" />
        </mxCell>
        <mxCell id="aVfDais8ba7qGyW5DWxb-44" value="[Buff size A &amp;lt;= Buff size B&lt;span style=&quot;background-color: transparent; color: light-dark(rgb(0, 0, 0), rgb(255, 255, 255));&quot;&gt;]&lt;/span&gt;" style="text;html=1;align=left;verticalAlign=middle;resizable=0;points=[];autosize=1;strokeColor=none;fillColor=none;" vertex="1" parent="1">
          <mxGeometry x="-50" y="780" width="160" height="30" as="geometry" />
        </mxCell>
        <mxCell id="aVfDais8ba7qGyW5DWxb-45" value="ACK" style="html=1;verticalAlign=bottom;startArrow=none;startFill=0;endArrow=block;startSize=8;curved=0;rounded=0;exitX=1;exitY=1;exitDx=0;exitDy=-5;exitPerimeter=0;strokeColor=#B3B3B3;dashed=1;" edge="1" parent="1" source="aVfDais8ba7qGyW5DWxb-33" target="aVfDais8ba7qGyW5DWxb-27">
          <mxGeometry width="60" relative="1" as="geometry">
            <mxPoint x="215" y="525" as="sourcePoint" />
            <mxPoint x="535" y="525" as="targetPoint" />
          </mxGeometry>
        </mxCell>
        <mxCell id="aVfDais8ba7qGyW5DWxb-34" value="&lt;span style=&quot;font-size: 8px;&quot;&gt;Repeat data&lt;/span&gt;" style="shape=note2;boundedLbl=1;whiteSpace=wrap;html=1;size=17;verticalAlign=top;align=center;" vertex="1" parent="1">
          <mxGeometry x="220" y="580" width="80" height="60" as="geometry" />
        </mxCell>
        <mxCell id="aVfDais8ba7qGyW5DWxb-47" value="" style="html=1;points=[[0,0,0,0,5],[0,1,0,0,-5],[1,0,0,0,5],[1,1,0,0,-5]];perimeter=orthogonalPerimeter;outlineConnect=0;targetShapes=umlLifeline;portConstraint=eastwest;newEdgeStyle={&quot;curved&quot;:0,&quot;rounded&quot;:0};" vertex="1" parent="1">
          <mxGeometry x="195" y="810" width="10" height="80" as="geometry" />
        </mxCell>
        <mxCell id="aVfDais8ba7qGyW5DWxb-48" value="DATA" style="html=1;verticalAlign=bottom;startArrow=oval;startFill=1;endArrow=block;startSize=8;curved=0;rounded=0;entryX=1;entryY=0;entryDx=0;entryDy=5;entryPerimeter=0;" edge="1" parent="1" source="aVfDais8ba7qGyW5DWxb-27" target="aVfDais8ba7qGyW5DWxb-47">
          <mxGeometry width="60" relative="1" as="geometry">
            <mxPoint x="310" y="770" as="sourcePoint" />
            <mxPoint x="370" y="770" as="targetPoint" />
          </mxGeometry>
        </mxCell>
        <mxCell id="aVfDais8ba7qGyW5DWxb-50" value="ACK" style="html=1;verticalAlign=bottom;startArrow=none;startFill=0;endArrow=block;startSize=8;curved=0;rounded=0;exitX=1;exitY=1;exitDx=0;exitDy=-5;exitPerimeter=0;strokeColor=#B3B3B3;dashed=1;" edge="1" parent="1" source="aVfDais8ba7qGyW5DWxb-47" target="aVfDais8ba7qGyW5DWxb-27">
          <mxGeometry width="60" relative="1" as="geometry">
            <mxPoint x="215" y="605" as="sourcePoint" />
            <mxPoint x="535" y="605" as="targetPoint" />
          </mxGeometry>
        </mxCell>
      </root>
    </mxGraphModel>
  </diagram>
</mxfile>
